# xmcd CD database file
#
# Track frame offsets:
#	150
#	15380
#	30582
#	48609
#	62504
#	84050
#	98964
#	109225
#	120108
#	140740
#	142893
#	158406
#	166727
#	187589
#	204819
#
# Disc length: 3081 seconds
#
# Revision: 0
# Processed by: cddbd v1.5.2PL0 Copyright (c) Steve Scherf et al.
# Submitted via: CDex 1.70beta2
#
DISCID=a60c070f
DTITLE=la mine de rien - idées vagues
DYEAR=1900
DGENRE=Jazz
TTITLE0=oublie
TTITLE1=le fils du vent
TTITLE2=le bordel
TTITLE3=babel
TTITLE4=les idées vagues
TTITLE5=les ecrits vains
TTITLE6=le crachin
TTITLE7=les ptits plaisirs
TTITLE8=le mythomane
TTITLE9=requiem
TTITLE10=a l'enterrement de l'ami brillant
TTITLE11=la fille du vent
TTITLE12=en vie
TTITLE13=la satire
TTITLE14=feu de joie
EXTD=
EXTT0=
EXTT1=
EXTT2=
EXTT3=
EXTT4=
EXTT5=
EXTT6=
EXTT7=
EXTT8=
EXTT9=
EXTT10=
EXTT11=
EXTT12=
EXTT13=
EXTT14=
PLAYORDER=
